<svg width="2475" height="2475" xmlns="http://www.w3.org/2000/svg" xmlns:xlink="http://www.w3.org/1999/xlink" xml:space="preserve" overflow="hidden"><g transform="translate(-963 0)"><path d="M3172.66 2166.54C3189.77 2166.54 3205.97 2158.84 3216.73 2145.54 3227.52 2132.25 3231.71 2114.82 3228.17 2098.08L3192.44 1928.96C3212.79 1909.27 3225.59 1881.78 3225.59 1851.21 3225.59 1819.04 3211.25 1790.5 3189.01 1770.67L3189.01 1183.39 3045.77 1272.04 3045.77 1770.67C3023.53 1790.5 3009.19 1819.04 3009.19 1851.21 3009.19 1881.78 3021.99 1909.27 3042.34 1928.96L3006.59 2098.08C3003.05 2114.82 3007.26 2132.25 3018.05 2145.54 3028.81 2158.84 3045.01 2166.54 3062.12 2166.54L3172.66 2166.54ZM3221.21 840.685 2289.26 263.78C2261.97 246.968 2231.2 238.528 2200.43 238.528 2169.67 238.528 2138.88 246.961 2111.75 263.78L1179.79 840.685C1154.9 856.083 1139.79 883.28 1139.79 912.55 1139.79 941.826 1154.9 969.031 1179.79 984.454L2111.74 1561.36C2138.87 1578.19 2169.66 1586.62 2200.43 1586.62 2231.2 1586.62 2261.97 1578.18 2289.26 1561.36L3221.21 984.454C3246.1 969.039 3261.21 941.826 3261.21 912.55 3261.21 883.28 3246.1 856.074 3221.21 840.685ZM2200.43 1729.86C2142.38 1729.86 2085.72 1713.74 2036.33 1683.17L1492.71 1346.63 1492.71 1926.13C1492.71 2097.63 1809.72 2236.48 2200.43 2236.48 2591.28 2236.48 2908.26 2097.63 2908.26 1926.13L2908.26 1346.63 2364.66 1683.17C2315.28 1713.74 2258.48 1729.86 2200.43 1729.86Z" fill="#D1D1D1"/><g><g><g><path d="M-23.9628 540.494-11.9814 310.717C-11.3382 296.763-22.1292 284.929-36.0839 284.285-37.908 284.201-39.7359 284.315-41.5355 284.625L-270.247 324.829-239.361 239.628C-236.792 232.677-238.933 224.862-244.687 220.191L-495.231 17.3064-438.785-9.0526C-430.897-12.78-427.017-21.7958-429.732-30.0866L-479.255-182.383-334.946-151.764C-326.886-150.084-318.757-154.315-315.51-161.882L-287.553-227.646-174.928-106.767C-168.352-99.8312-157.398-99.5392-150.462-106.115-146.177-110.178-144.259-116.145-145.374-121.944L-199.69-402.042-112.625-351.72C-104.379-346.887-93.7761-349.654-88.9431-357.9-88.7497-358.23-88.5672-358.567-88.396-358.909L0-532.506 88.396-358.909C92.6719-350.361 103.068-346.897 111.616-351.173 111.958-351.344 112.295-351.527 112.625-351.72L199.69-402.042 145.374-121.944C143.569-112.558 149.714-103.485 159.1-101.68 164.898-100.564 170.866-102.482 174.928-106.767L287.553-227.646 315.51-161.882C318.757-154.315 326.886-150.084 334.946-151.764L479.255-182.383 429.732-30.0866C427.017-21.7958 430.897-12.78 438.785-9.0526L495.231 17.3064 244.687 220.191C238.933 224.862 236.792 232.677 239.361 239.628L270.247 324.829 41.5355 284.625C27.7681 282.257 14.6881 291.498 12.3205 305.266 12.011 307.065 11.8973 308.893 11.9814 310.717L23.9628 540.494Z" fill="#D52B1E" transform="matrix(1.00093 0 0 1 2200 863.506)"/></g></g></g></g></svg>